<?xml version="1.0" encoding="UTF-8" standalone="no"?>
<svg
   xmlns:dc="http://purl.org/dc/elements/1.1/"
   xmlns:cc="http://creativecommons.org/ns#"
   xmlns:rdf="http://www.w3.org/1999/02/22-rdf-syntax-ns#"
   xmlns:svg="http://www.w3.org/2000/svg"
   xmlns="http://www.w3.org/2000/svg"
   xmlns:sodipodi="http://sodipodi.sourceforge.net/DTD/sodipodi-0.dtd"
   xmlns:inkscape="http://www.inkscape.org/namespaces/inkscape"
   id="Capa_1"
   data-name="Capa 1"
   viewBox="0 0 50.08 26.02"
   version="1.1"
   sodipodi:docname="academic.svg"
   inkscape:version="0.92.2 (5c3e80d, 2017-08-06)">
  <metadata
     id="metadata9">
    <rdf:RDF>
      <cc:Work
         rdf:about="">
        <dc:format>image/svg+xml</dc:format>
        <dc:type
           rdf:resource="http://purl.org/dc/dcmitype/StillImage" />
      </cc:Work>
    </rdf:RDF>
  </metadata>
  <defs
     id="defs7" />
  <sodipodi:namedview
     pagecolor="#ffffff"
     bordercolor="#666666"
     borderopacity="1"
     objecttolerance="10"
     gridtolerance="10"
     guidetolerance="10"
     inkscape:pageopacity="0"
     inkscape:pageshadow="2"
     inkscape:window-width="760"
     inkscape:window-height="480"
     id="namedview5"
     showgrid="false"
     inkscape:zoom="6.9688496"
     inkscape:cx="25.040001"
     inkscape:cy="13.01"
     inkscape:window-x="0"
     inkscape:window-y="0"
     inkscape:window-maximized="0"
     inkscape:current-layer="Capa_1" />
  <path
     class="color1"
     style="fill:#eeb72b;fill-opacity:1"
     d="M49.4,8,26.4.05a1,1,0,0,0-.65,0L2.75,8l0,0-.1,0a.9.9,0,0,0-.2.14l-.09.09a1.27,1.27,0,0,0-.13.19.54.54,0,0,0-.05.11,1,1,0,0,0-.07.35v8.56a3.07,3.07,0,1,0,4.08,2.89,3.07,3.07,0,0,0-2.08-2.89V10.3l9.33,3.2v7.93a1,1,0,0,0,.44.83,21.77,21.77,0,0,0,24.46,0,1,1,0,0,0,.44-.83V13.5L49.4,9.84A1,1,0,0,0,49.4,8ZM3.08,21.43a1.08,1.08,0,1,1,1.08-1.08A1.08,1.08,0,0,1,3.08,21.43Zm33.67-.53a19.78,19.78,0,0,1-21.34,0V14.19l10.34,3.55a1,1,0,0,0,.33.06.87.87,0,0,0,.32-.06l10.35-3.55ZM26.08,15.74,6.16,8.9,26.08,2.06,46,8.9Z"
     id="path2"
     inkscape:export-xdpi="862.80359"
     inkscape:export-ydpi="862.80359" />
</svg>
