<?xml version="1.0" encoding="UTF-8" standalone="no"?>
<svg
   xmlns:dc="http://purl.org/dc/elements/1.1/"
   xmlns:cc="http://creativecommons.org/ns#"
   xmlns:rdf="http://www.w3.org/1999/02/22-rdf-syntax-ns#"
   xmlns:svg="http://www.w3.org/2000/svg"
   xmlns="http://www.w3.org/2000/svg"
   xmlns:sodipodi="http://sodipodi.sourceforge.net/DTD/sodipodi-0.dtd"
   xmlns:inkscape="http://www.inkscape.org/namespaces/inkscape"
   fill="none"
   viewBox="0 0 215 176"
   version="1.1"
   id="svg6884"
   sodipodi:docname="assignment.svg"
   inkscape:export-filename="C:\Users\Eva_M\Dropbox\Innovacion_Docente\InnovacionDocente_2022-2023\A0-Presentacion\images\assignment.png"
   inkscape:export-xdpi="267.9194"
   inkscape:export-ydpi="267.9194"
   inkscape:version="0.92.2 (5c3e80d, 2017-08-06)">
  <metadata
     id="metadata6890">
    <rdf:RDF>
      <cc:Work
         rdf:about="">
        <dc:format>image/svg+xml</dc:format>
        <dc:type
           rdf:resource="http://purl.org/dc/dcmitype/StillImage" />
      </cc:Work>
    </rdf:RDF>
  </metadata>
  <defs
     id="defs6888" />
  <sodipodi:namedview
     pagecolor="#ffffff"
     bordercolor="#666666"
     borderopacity="1"
     objecttolerance="10"
     gridtolerance="10"
     guidetolerance="10"
     inkscape:pageopacity="0"
     inkscape:pageshadow="2"
     inkscape:window-width="760"
     inkscape:window-height="480"
     id="namedview6886"
     showgrid="false"
     inkscape:zoom="1.3409091"
     inkscape:cx="107.5"
     inkscape:cy="88"
     inkscape:window-x="0"
     inkscape:window-y="0"
     inkscape:window-maximized="0"
     inkscape:current-layer="svg6884" />
  <g
     class="41"
     id="g6882">
    <path
       fill="#fff"
       d="M2.5 175.5h210a2.5 2.5 0 002.5-2.5V42.74c0-6.75-5.49-12.24-12.24-12.24H70.6L47.02 6.92 44.6 4.5A14.296 14.296 0 0034.42.28c-3.85 0-7.47 1.5-10.19 4.22a14.325 14.325 0 00-4.22 10.2c0 3.85 1.5 7.46 4.22 10.17l2.42 2.43 6.87 6.87a12.301 12.301 0 00-3.51 8.57V160.5H2.51a2.5 2.5 0 00-2.5 2.5v10a2.486 2.486 0 002.49 2.5z"
       class="bgcolor"
       id="path6872" />
    <path
       fill="#F4BB2E"
       d="M132.72 113l-7.24-20-2.32-6.4-13.6-13.6-30.71-30.71H202.5v102.14h-160V39.62L75.88 73l20 20 10.44 10.44 26.4 9.56z"
       class="color1"
       opacity=".25"
       style="fill: rgb(244, 187, 46);"
       id="path6874" />
    <path
       fill="#F4BB2E"
       d="M123.16 86.6l-16.84 16.84L95.88 93l-20-20L42.5 39.62l-5.25-5.25-8.84-8.84L45.25 8.69 69.56 33l9.29 9.29L109.56 73l13.6 13.6z"
       class="color1"
       opacity=".4"
       style="fill: rgb(244, 187, 46);"
       id="path6876" />
    <path
       fill="#F4BB2E"
       d="M125.48 93l7.24 20-26.4-9.56 16.84-16.84 2.32 6.4zM32.5 163h-30v10h210v-10h-180zM202.76 33H69.56l9.29 9.29H202.5v102.14h-160V39.62l-5.25-5.25a9.724 9.724 0 00-4.75 8.37V163h180V42.74c0-5.38-4.36-9.74-9.74-9.74zM42.82 6.27c-4.64-4.65-12.18-4.65-16.83 0-4.65 4.65-4.65 12.19 0 16.83l2.42 2.43L45.25 8.69l-2.43-2.42z"
       class="color1"
       style="fill: rgb(244, 187, 46);"
       id="path6878" />
    <path
       fill="#000"
       d="M2.5 175.5h210a2.5 2.5 0 002.5-2.5V42.74c0-6.75-5.49-12.24-12.24-12.24H70.6L47.02 6.92 44.6 4.5A14.296 14.296 0 0034.42.28c-3.85 0-7.47 1.5-10.19 4.22a14.325 14.325 0 00-4.22 10.2c0 3.85 1.5 7.46 4.22 10.17l2.42 2.43 6.87 6.87a12.301 12.301 0 00-3.51 8.57V160.5H2.51a2.5 2.5 0 00-2.5 2.5v10a2.486 2.486 0 002.49 2.5zM45 45.66L69.84 70.5H62.5a2.5 2.5 0 000 5h12.34l15 15H62.5a2.5 2.5 0 000 5h32.34l9.71 9.71c.09.09.19.16.28.23.03.02.06.05.09.07.16.11.33.2.51.26.01 0 .02.01.03.02l26.4 9.56.21.06c.06.02.12.04.18.05.15.03.31.05.47.05h49.78a2.5 2.5 0 000-5h-48.03l-5.43-15h53.46a2.5 2.5 0 000-5h-55.27l-1.72-4.75c0-.01-.01-.02-.02-.03-.07-.18-.15-.35-.26-.51-.02-.03-.05-.05-.07-.08-.07-.1-.15-.2-.23-.29l-9.33-9.33h66.9a2.5 2.5 0 000-5h-71.9L84.89 44.81H200v97.14H45V45.66zm77.15 45.49l6.4 17.69-17.69-6.4 11.29-11.29zm-14.36-16.38l11.83 11.83-13.3 13.31-8.67-8.67-20-20-33.38-33.38-12.32-12.32 13.3-13.3 62.54 62.53zM27.76 8.04a9.333 9.333 0 016.65-2.75c2.51 0 4.87.98 6.65 2.76l.66.65L28.42 22l-.66-.66a9.334 9.334 0 01-2.75-6.64c-.01-2.52.97-4.88 2.75-6.66zM40 40.66v103.77a2.5 2.5 0 002.5 2.5h160a2.5 2.5 0 002.5-2.5V42.29a2.5 2.5 0 00-2.5-2.5H79.89L75.6 35.5h127.16c3.99 0 7.24 3.25 7.24 7.24V160.5H35V42.74c0-1.93.74-3.72 2.04-5.05L40 40.66zM5 165.5h205v5H5v-5z"
       class="color2"
       id="path6880" />
  </g>
</svg>
