<svg xmlns="http://www.w3.org/2000/svg" viewBox="0 0 47.25 47.25">
  <g class="color1" style="fill: rgb(117, 195, 240);">
<path d="M23.63,0A23.63,23.63,0,1,0,47.25,23.63,23.65,23.65,0,0,0,23.63,0Zm0,45.25A21.63,21.63,0,1,1,45.25,23.63,21.65,21.65,0,0,1,23.63,45.25Z"></path>
<path d="M28.89,20.25l-5.67,2.46-.09.06a.85.85,0,0,0-.3.27.93.93,0,0,0-.08.09L18,31.45a1,1,0,0,0,1.73,1l4.64-8,5.36-2.33a1,1,0,1,0-.8-1.83Z"></path>
<path d="M40.62,33.32a19.43,19.43,0,0,0,0-19.39.94.94,0,0,0,0-.1,1,1,0,0,0-.08-.1,19.7,19.7,0,0,0-7-7,.94.94,0,0,0-.1-.09l-.1,0a19.43,19.43,0,0,0-19.39,0l-.1,0a.94.94,0,0,0-.1.09,19.7,19.7,0,0,0-7,7,.93.93,0,0,0-.08.1.94.94,0,0,0,0,.1,19.43,19.43,0,0,0,0,19.39.94.94,0,0,0,0,.1,1,1,0,0,0,.12.16,19.7,19.7,0,0,0,6.95,6.92.94.94,0,0,0,.1.09l.14.06a19.44,19.44,0,0,0,19.31,0l.14-.06a.94.94,0,0,0,.1-.09,19.7,19.7,0,0,0,6.95-6.92,1,1,0,0,0,.12-.16A.94.94,0,0,0,40.62,33.32Zm-7.36,5-.94-1.62a1,1,0,0,0-1.73,1l.93,1.62a17.44,17.44,0,0,1-6.9,1.85V39.29a1,1,0,0,0-2,0v1.87a17.44,17.44,0,0,1-6.9-1.85l.93-1.62a1,1,0,0,0-1.73-1L14,38.32a17.71,17.71,0,0,1-5.05-5.05l1.62-.94a1,1,0,0,0-1-1.73l-1.62.93a17.43,17.43,0,0,1-1.85-6.9H8a1,1,0,0,0,0-2H6.09a17.43,17.43,0,0,1,1.85-6.9l1.62.93a1,1,0,0,0,1-1.73L8.93,14A17.71,17.71,0,0,1,14,8.93l.94,1.62a1,1,0,1,0,1.73-1l-.93-1.62a17.44,17.44,0,0,1,6.9-1.85V8a1,1,0,1,0,2,0V6.09a17.44,17.44,0,0,1,6.9,1.85l-.93,1.62a1,1,0,0,0,1.73,1l.94-1.62A17.71,17.71,0,0,1,38.32,14l-1.62.94a1,1,0,0,0,1,1.73l1.62-.93a17.43,17.43,0,0,1,1.85,6.9H39.29a1,1,0,0,0,0,2h1.87a17.43,17.43,0,0,1-1.85,6.9l-1.62-.93a1,1,0,0,0-1,1.73l1.62.94A17.71,17.71,0,0,1,33.26,38.32Z"></path>
</g>
</svg>