<?xml version="1.0" encoding="UTF-8" standalone="no"?>
<svg
   xmlns:dc="http://purl.org/dc/elements/1.1/"
   xmlns:cc="http://creativecommons.org/ns#"
   xmlns:rdf="http://www.w3.org/1999/02/22-rdf-syntax-ns#"
   xmlns:svg="http://www.w3.org/2000/svg"
   xmlns="http://www.w3.org/2000/svg"
   xmlns:sodipodi="http://sodipodi.sourceforge.net/DTD/sodipodi-0.dtd"
   xmlns:inkscape="http://www.inkscape.org/namespaces/inkscape"
   fill="none"
   viewBox="0 0 170 213"
   version="1.1"
   id="svg4540"
   sodipodi:docname="grade1.svg"
   inkscape:export-filename="C:\Users\Eva_M\Dropbox\Innovacion_Docente\InnovacionDocente_2022-2023\A0-Presentacion\images\grade1.png"
   inkscape:export-xdpi="255.41385"
   inkscape:export-ydpi="255.41385"
   inkscape:version="0.92.2 (5c3e80d, 2017-08-06)">
  <metadata
     id="metadata4546">
    <rdf:RDF>
      <cc:Work
         rdf:about="">
        <dc:format>image/svg+xml</dc:format>
        <dc:type
           rdf:resource="http://purl.org/dc/dcmitype/StillImage" />
      </cc:Work>
    </rdf:RDF>
  </metadata>
  <defs
     id="defs4544" />
  <sodipodi:namedview
     pagecolor="#ffffff"
     bordercolor="#666666"
     borderopacity="1"
     objecttolerance="10"
     gridtolerance="10"
     guidetolerance="10"
     inkscape:pageopacity="0"
     inkscape:pageshadow="2"
     inkscape:window-width="760"
     inkscape:window-height="480"
     id="namedview4542"
     showgrid="false"
     inkscape:zoom="1.1079812"
     inkscape:cx="85"
     inkscape:cy="106.5"
     inkscape:window-x="0"
     inkscape:window-y="0"
     inkscape:window-maximized="0"
     inkscape:current-layer="svg4540" />
  <g
     class="31"
     id="g4538">
    <path
       fill="#fff"
       d="M134.95 32.83v-.03c-.04-.22-.12-.42-.22-.61-.02-.05-.05-.09-.07-.13-.11-.19-.24-.38-.39-.53l-30-30c-.16-.16-.34-.28-.53-.39a.611.611 0 00-.14-.07c-.19-.1-.39-.17-.61-.22h-.03c-.15-.03-.3-.05-.46-.05H12.13C5.44.8 0 6.24 0 12.92v150.75c0 6.69 5.44 12.13 12.13 12.13h101.9l-8.52 27.83c-.29.95.01 1.97.75 2.62.75.65 1.81.8 2.7.37l9.72-4.58 5.49 9.24a2.496 2.496 0 002.45 1.2c.98-.12 1.8-.8 2.09-1.75l3.91-12.69 3.89 12.69a2.497 2.497 0 002.39 1.77c.87 0 1.7-.46 2.15-1.22l5.48-9.24 9.72 4.58a2.496 2.496 0 003.45-2.99l-12.19-39.86 1.11-1.71 8.98-.45a2.494 2.494 0 002.37-2.37l.46-8.98 7.56-4.88c1.08-.7 1.45-2.1.87-3.24l-4.11-8.01 4.1-8c.59-1.14.21-2.54-.87-3.24l-7.56-4.88-.46-8.98a2.494 2.494 0 00-2.37-2.37l-8.98-.45-4.88-7.55c-.7-1.08-2.1-1.45-3.24-.87l-5.5 2.82V33.32c.01-.18-.01-.34-.04-.49z"
       class="bgcolor"
       id="path4528" />
    <path
       fill="#F4BB2E"
       d="M144.79 163.39l12.53 40.97-11.78-5.55L138.9 210l-6.27-20.47v-.01l-6.9-22.48v-.01l6.77-3.46 9.14 4.68 3.15-4.86zm-19.06 3.65l-2.37 1.21-2.99-4.62-2.96 9.67-9.51 31.06 11.77-5.55 6.65 11.19 6.31-20.47v-.01l-6.9-22.48z"
       class="color1"
       opacity=".4"
       style="fill: rgb(244, 187, 46);"
       id="path4530" />
    <path
       fill="#F4BB2E"
       d="M132.5 117.06c9.42 0 17.06 7.64 17.06 17.06 0 9.43-7.64 17.07-17.06 17.07-9.42 0-17.06-7.64-17.06-17.07 0-9.42 7.64-17.06 17.06-17.06zm-34.12 7.92l8.62-5.58.48-9.4.04-.86 10.26-.51 5.58-8.63 9.14 4.68V33.3h-30v-30H12.13c-5.32 0-9.63 4.31-9.63 9.62v150.75c0 5.32 4.31 9.63 9.63 9.63h105.28l2.96-9.67-2.59-4.01-10.26-.51-.52-10.26-8.62-5.58 4.68-9.15-2.11-4.12-2.57-5.02z"
       class="color1"
       opacity=".25"
       style="fill: rgb(244, 187, 46);"
       id="path4532" />
    <path
       fill="#F4BB2E"
       d="M166.63 124.98l-4.69 9.14 4.69 9.15-8.63 5.58-.52 10.26-10.26.51-2.43 3.77-3.15 4.86-9.14-4.68-6.77 3.46v.01l-2.37 1.21-2.99-4.62-2.59-4.01-10.26-.51-.52-10.26-8.62-5.58 4.68-9.15-2.11-4.12-2.57-5.02 8.62-5.58.48-9.4.04-.86 10.26-.51 5.58-8.63 9.14 4.68 9.14-4.68 5.58 8.63 10.26.51.52 10.26 8.63 5.58zm-17.07 9.14c0-9.42-7.64-17.06-17.06-17.06-9.42 0-17.06 7.64-17.06 17.06 0 9.43 7.64 17.07 17.06 17.07 9.42 0 17.06-7.64 17.06-17.07zM102.5 3.3v30h30l-30-30z"
       class="color1"
       style="fill: rgb(244, 187, 46);"
       id="path4534" />
    <path
       fill="#000"
       d="M134.95 32.83v-.03c-.04-.22-.12-.42-.22-.61-.02-.05-.05-.09-.07-.13-.11-.19-.24-.38-.39-.53l-30-30c-.16-.16-.34-.28-.53-.39a.611.611 0 00-.14-.07c-.19-.1-.39-.17-.61-.22h-.03c-.15-.03-.3-.05-.46-.05H12.13C5.44.8 0 6.24 0 12.92v150.75c0 6.69 5.44 12.13 12.13 12.13h101.9l-8.52 27.83c-.29.95.01 1.97.75 2.62.74.65 1.81.8 2.7.37l9.72-4.58 5.49 9.24a2.496 2.496 0 002.45 1.2c.98-.12 1.8-.8 2.09-1.75l3.91-12.69 3.89 12.69a2.497 2.497 0 002.39 1.77c.88 0 1.7-.46 2.15-1.22l5.48-9.24 9.72 4.58a2.494 2.494 0 003.45-2.99l-12.19-39.86 1.11-1.71 8.98-.45a2.494 2.494 0 002.37-2.37l.46-8.98 7.56-4.88c1.08-.7 1.45-2.1.87-3.24l-4.1-8.01 4.1-8c.59-1.14.21-2.54-.87-3.24l-7.56-4.88-.46-8.98a2.494 2.494 0 00-2.37-2.37l-8.98-.45-4.88-7.55c-.7-1.08-2.1-1.45-3.24-.87l-5.5 2.82V33.32c0-.18-.02-.34-.05-.49zM105 9.33l21.46 21.46H105V9.33zM12.13 170.8c-3.93 0-7.13-3.2-7.13-7.13V12.92C5 8.99 8.2 5.8 12.13 5.8H100v27.5a2.5 2.5 0 002.5 2.5H130v64.79l-5.5-2.82a2.507 2.507 0 00-3.24.87l-4.88 7.55-8.98.45c-.7.04-1.32.36-1.75.86H82.5a2.5 2.5 0 000 5h22.35l-.28 5.5-7.55 4.89c-1.08.7-1.45 2.1-.87 3.24l.71 1.38H82.5a2.5 2.5 0 000 5h16.92l.83 1.62-4.1 8.01c-.58 1.14-.21 2.54.87 3.24l7.55 4.88.46 8.98a2.494 2.494 0 002.37 2.37l8.98.45 1.26 1.96-2.08 6.79H12.13v-.01zm113.46 33.08l-3.77-6.35a2.5 2.5 0 00-3.22-.98l-6.66 3.14 9.24-30.19.07.11a2.47 2.47 0 002.94.98l5.81 18.93-4.41 14.36zm27.69-4.19l-6.67-3.14a2.504 2.504 0 00-3.22.99l-3.76 6.33-4.61-15.05c0-.01 0-.02-.01-.03l-6.29-20.48 3.77-1.93 8 4.1c.36.19.75.27 1.14.27.82 0 1.62-.41 2.1-1.14l.23-.36 9.32 30.44zm-12.51-96.44l4.35 6.73c.44.68 1.17 1.1 1.98 1.14l8 .4.41 8c.04.8.46 1.54 1.14 1.97l6.73 4.35-3.66 7.13a2.48 2.48 0 000 2.28l3.66 7.14-6.73 4.35c-.67.44-1.1 1.17-1.14 1.97l-.41 8-8 .4c-.8.04-1.54.47-1.98 1.14l-4.35 6.73-7.13-3.65a2.48 2.48 0 00-2.28 0l-6.77 3.46c-.06.03-.12.07-.18.1l-.18.09-4.35-6.73c-.44-.68-1.17-1.1-1.98-1.14l-8-.4-.41-8c-.04-.8-.46-1.54-1.14-1.97l-6.72-4.35 3.65-7.14c.37-.72.37-1.56 0-2.28l-3.65-7.13 6.72-4.35c.67-.44 1.1-1.17 1.14-1.97l.41-8 8-.4c.8-.04 1.54-.46 1.98-1.14l4.35-6.73 7.13 3.65c.02.01.05.02.07.03.12.06.25.1.38.14.05.01.09.03.14.04.18.04.36.07.55.07.19 0 .37-.03.55-.07.05-.01.09-.03.14-.04.13-.04.26-.08.38-.14.02-.01.05-.01.07-.03l7.13-3.65zm-27.83 30.87c0 10.79 8.77 19.57 19.56 19.57s19.56-8.78 19.56-19.57c0-10.79-8.77-19.56-19.56-19.56s-19.56 8.77-19.56 19.56zm34.12 0c0 8.03-6.53 14.57-14.56 14.57-8.03 0-14.56-6.54-14.56-14.57 0-8.03 6.53-14.56 14.56-14.56 8.03 0 14.56 6.53 14.56 14.56zM112.5 52.5h-90a2.5 2.5 0 010-5h90a2.5 2.5 0 010 5zM65 70a2.5 2.5 0 01-2.5 2.5h-30a2.5 2.5 0 010-5h30A2.5 2.5 0 0165 70zm0 20a2.5 2.5 0 01-2.5 2.5h-30a2.5 2.5 0 010-5h30A2.5 2.5 0 0165 90zm0 20a2.5 2.5 0 01-2.5 2.5h-30a2.5 2.5 0 010-5h30A2.5 2.5 0 0165 110zm0 20a2.5 2.5 0 01-2.5 2.5h-30a2.5 2.5 0 010-5h30A2.5 2.5 0 0165 130zm50-60a2.5 2.5 0 01-2.5 2.5h-30a2.5 2.5 0 010-5h30A2.5 2.5 0 01115 70zm0 20a2.5 2.5 0 01-2.5 2.5h-30a2.5 2.5 0 010-5h30A2.5 2.5 0 01115 90z"
       class="color2"
       id="path4536" />
  </g>
</svg>
