<?xml version="1.0" encoding="UTF-8" standalone="no"?>
<svg
   xmlns:dc="http://purl.org/dc/elements/1.1/"
   xmlns:cc="http://creativecommons.org/ns#"
   xmlns:rdf="http://www.w3.org/1999/02/22-rdf-syntax-ns#"
   xmlns:svg="http://www.w3.org/2000/svg"
   xmlns="http://www.w3.org/2000/svg"
   xmlns:sodipodi="http://sodipodi.sourceforge.net/DTD/sodipodi-0.dtd"
   xmlns:inkscape="http://www.inkscape.org/namespaces/inkscape"
   fill="none"
   viewBox="0 0 137 216"
   version="1.1"
   id="svg6298"
   sodipodi:docname="grade2.svg"
   inkscape:export-filename="C:\Users\Eva_M\Dropbox\Innovacion_Docente\InnovacionDocente_2022-2023\A0-Presentacion\images\grade2.png"
   inkscape:export-xdpi="425.76166"
   inkscape:export-ydpi="425.76166"
   inkscape:version="0.92.2 (5c3e80d, 2017-08-06)">
  <metadata
     id="metadata6304">
    <rdf:RDF>
      <cc:Work
         rdf:about="">
        <dc:format>image/svg+xml</dc:format>
        <dc:type
           rdf:resource="http://purl.org/dc/dcmitype/StillImage" />
      </cc:Work>
    </rdf:RDF>
  </metadata>
  <defs
     id="defs6302" />
  <sodipodi:namedview
     pagecolor="#ffffff"
     bordercolor="#666666"
     borderopacity="1"
     objecttolerance="10"
     gridtolerance="10"
     guidetolerance="10"
     inkscape:pageopacity="0"
     inkscape:pageshadow="2"
     inkscape:window-width="760"
     inkscape:window-height="480"
     id="namedview6300"
     showgrid="false"
     inkscape:zoom="1.0925926"
     inkscape:cx="68.5"
     inkscape:cy="108"
     inkscape:window-x="0"
     inkscape:window-y="0"
     inkscape:window-maximized="0"
     inkscape:current-layer="svg6298" />
  <g
     class="73"
     id="g6296">
    <path
       fill="#fff"
       d="M1.99 87.7l15.4 9.96.92 18.31a2.494 2.494 0 002.37 2.37l18.31.92 3.62 5.61-23.48 76.63c-.29.95.01 1.97.75 2.62.74.65 1.81.8 2.7.37L43 194.86l11.53 19.42a2.496 2.496 0 002.45 1.2c.98-.12 1.8-.8 2.09-1.75l9.64-31.3 9.59 31.3a2.497 2.497 0 002.39 1.77c.87 0 1.7-.46 2.15-1.22l11.53-19.42 20.42 9.63a2.496 2.496 0 003.45-2.99l-23.58-77.11 3.32-5.13 18.31-.92a2.494 2.494 0 002.37-2.37l.92-18.31 15.4-9.96c1.08-.7 1.45-2.1.87-3.24l-8.36-16.31 8.37-16.32c.59-1.14.21-2.54-.87-3.24l-15.4-9.95-.92-18.31a2.494 2.494 0 00-2.37-2.37l-18.31-.93-9.95-15.39C87.34.56 85.94.19 84.8.77L68.48 9.13 52.16.77a2.507 2.507 0 00-3.24.87L39 17.04l-18.31.93a2.501 2.501 0 00-2.37 2.37l-.92 18.31L2 48.6c-1.08.7-1.45 2.1-.87 3.24L9.5 68.16 1.13 84.47C.54 85.6.91 87 1.99 87.7z"
       class="bgcolor"
       id="path6286" />
    <path
       fill="#F4BB2E"
       d="M68.5 35.57c17.99 0 32.57 14.59 32.57 32.58s-14.58 32.57-32.57 32.57c-17.99 0-32.57-14.58-32.57-32.57 0-17.99 14.58-32.58 32.57-32.58z"
       class="color1"
       opacity=".25"
       style="fill: rgb(244, 187, 46);"
       id="path6288" />
    <path
       fill="#F4BB2E"
       d="M68.74 173.91v.01L56.7 213l-12.69-21.37-22.48 10.6 23.82-77.75 5.69 8.82 4.54-2.33 13.16 42.94zm17.22-40.61l-17.46-8.95-12.92 6.62 13.16 42.94v.01L80.71 213l12.69-21.37 22.48 10.6-23.92-78.22-6 9.29z"
       class="color1"
       opacity=".4"
       style="fill: rgb(244, 187, 46);"
       id="path6290" />
    <path
       fill="#F4BB2E"
       d="M133.65 50.69l-8.95 17.46 8.95 17.45-16.48 10.65-.98 19.59-19.59.98-4.64 7.19-6 9.29-17.46-8.95-12.92 6.62-4.54 2.33-5.69-8.82-4.95-7.66-19.59-.98-.98-19.59L3.35 85.6l8.95-17.45-8.95-17.46 16.48-10.64.98-19.59 19.59-.99L51.04 3l17.46 8.94L85.96 3 96.6 19.47l19.59.99.98 19.59 16.48 10.64zm-32.58 17.46c0-17.99-14.58-32.58-32.57-32.58-17.99 0-32.57 14.59-32.57 32.58s14.58 32.57 32.57 32.57c17.99 0 32.57-14.58 32.57-32.57z"
       class="color1"
       style="fill: rgb(244, 187, 46);"
       id="path6292" />
    <path
       fill="#000"
       d="M68.5 103.22c19.34 0 35.07-15.73 35.07-35.07S87.84 33.07 68.5 33.07 33.43 48.81 33.43 68.15c0 19.34 15.73 35.07 35.07 35.07zm0-65.15c16.58 0 30.07 13.49 30.07 30.08 0 16.58-13.49 30.07-30.07 30.07S38.43 84.73 38.43 68.15c0-16.59 13.49-30.08 30.07-30.08zM1.99 87.7l15.4 9.96.92 18.31a2.494 2.494 0 002.37 2.37l18.31.92 3.62 5.61-23.48 76.63c-.29.95.01 1.97.75 2.62.74.65 1.81.8 2.7.37L43 194.86l11.53 19.42a2.496 2.496 0 002.45 1.2c.98-.12 1.8-.8 2.09-1.75l9.64-31.3 9.59 31.3a2.497 2.497 0 002.39 1.77c.87 0 1.69-.46 2.15-1.22l11.53-19.42 20.42 9.63a2.494 2.494 0 003.45-2.99l-23.58-77.11 3.32-5.13 18.31-.92a2.494 2.494 0 002.37-2.37l.92-18.31 15.4-9.96c1.08-.7 1.45-2.1.87-3.24l-8.36-16.31 8.37-16.32c.59-1.14.21-2.54-.87-3.24l-15.4-9.95-.92-18.31a2.494 2.494 0 00-2.37-2.37L98 17.04 88.06 1.65C87.36.57 85.96.2 84.82.78L68.5 9.14 52.18.78a2.507 2.507 0 00-3.24.87L39 17.04l-18.31.93a2.501 2.501 0 00-2.37 2.37l-.92 18.31L2 48.6c-1.08.7-1.45 2.1-.87 3.24l8.36 16.32-8.36 16.31C.54 85.6.91 87 1.99 87.7zm53.98 119.18l-9.81-16.52a2.5 2.5 0 00-3.22-.98l-17.37 8.19 20.59-67.2 2.78 4.3c.47.74 1.28 1.14 2.1 1.14.39 0 .78-.09 1.14-.28l1.88-.97 12.06 39.35-10.15 32.97zm55.87-9.32l-17.37-8.19a2.51 2.51 0 00-3.22.98l-9.81 16.51-10.31-33.66c0-.01 0-.02-.01-.03l-12.55-40.94 9.92-5.08 16.32 8.37c1.14.58 2.54.21 3.24-.87l3.08-4.77 20.71 67.68zM14.52 69.29c.37-.72.37-1.56 0-2.28L6.6 51.56l14.58-9.41c.68-.44 1.1-1.17 1.14-1.98l.87-17.33 17.33-.88c.8-.04 1.54-.46 1.97-1.14L51.9 6.25l15.45 7.91c.72.37 1.56.37 2.28 0l15.45-7.91 9.41 14.57c.44.68 1.17 1.1 1.97 1.14l17.33.88.87 17.33c.04.8.46 1.54 1.14 1.98l14.58 9.41-7.92 15.45a2.48 2.48 0 000 2.28l7.92 15.44-14.58 9.42a2.49 2.49 0 00-1.14 1.97l-.87 17.33-17.33.87c-.8.04-1.54.46-1.98 1.14l-9.41 14.58-15.45-7.92c-.36-.18-.75-.28-1.14-.28-.39 0-.78.09-1.14.28l-12.96 6.64c-.01.01-.02.01-.03.02l-2.46 1.26-4.46-6.92-4.95-7.66c-.44-.68-1.17-1.1-1.98-1.14l-17.33-.87-.87-17.33c-.04-.8-.46-1.54-1.14-1.97L6.58 84.73l7.94-15.44z"
       class="color2"
       id="path6294" />
  </g>
</svg>
