<?xml version="1.0" encoding="UTF-8" standalone="no"?>
<svg
   xmlns:dc="http://purl.org/dc/elements/1.1/"
   xmlns:cc="http://creativecommons.org/ns#"
   xmlns:rdf="http://www.w3.org/1999/02/22-rdf-syntax-ns#"
   xmlns:svg="http://www.w3.org/2000/svg"
   xmlns="http://www.w3.org/2000/svg"
   xmlns:sodipodi="http://sodipodi.sourceforge.net/DTD/sodipodi-0.dtd"
   xmlns:inkscape="http://www.inkscape.org/namespaces/inkscape"
   fill="none"
   viewBox="0 0 225 171"
   version="1.1"
   id="svg5712"
   sodipodi:docname="notebook-b.svg"
   inkscape:export-filename="C:\Users\Eva_M\Dropbox\Innovacion_Docente\InnovacionDocente_2022-2023\A0-Presentacion\images\notebook-b.png"
   inkscape:export-xdpi="277.33334"
   inkscape:export-ydpi="277.33334"
   inkscape:version="0.92.2 (5c3e80d, 2017-08-06)">
  <metadata
     id="metadata5718">
    <rdf:RDF>
      <cc:Work
         rdf:about="">
        <dc:format>image/svg+xml</dc:format>
        <dc:type
           rdf:resource="http://purl.org/dc/dcmitype/StillImage" />
      </cc:Work>
    </rdf:RDF>
  </metadata>
  <defs
     id="defs5716" />
  <sodipodi:namedview
     pagecolor="#ffffff"
     bordercolor="#666666"
     borderopacity="1"
     objecttolerance="10"
     gridtolerance="10"
     guidetolerance="10"
     inkscape:pageopacity="0"
     inkscape:pageshadow="2"
     inkscape:window-width="760"
     inkscape:window-height="480"
     id="namedview5714"
     showgrid="false"
     inkscape:zoom="1.380117"
     inkscape:cx="112.5"
     inkscape:cy="86.506801"
     inkscape:window-x="0"
     inkscape:window-y="0"
     inkscape:window-maximized="0"
     inkscape:current-layer="svg5712" />
  <g
     class="30"
     id="g5710">
    <path
       fill="#fff"
       d="M222.5 50.5H215V43a2.5 2.5 0 00-2.5-2.5h-18.37c.58-2.45.87-4.96.87-7.5C195 15.08 180.42.5 162.5.5S130 15.08 130 33c0 2.54.3 5.05.88 7.5h-9.53c-3.62 0-6.79 1.68-8.85 4.35-2.06-2.67-5.23-4.35-8.85-4.35H12.5A2.5 2.5 0 0010 43v7.5H2.5A2.5 2.5 0 000 53v110a2.5 2.5 0 002.5 2.5h89.42a47.466 47.466 0 0020.58 4.72c7.3 0 14.6-1.72 21.12-4.98.07-.03.13-.07.2-.11l88.67.37c.64-.02 1.3-.26 1.77-.73s.74-1.11.74-1.77V53a2.5 2.5 0 00-2.5-2.5z"
       class="bgcolor"
       id="path5700" />
    <path
       fill="#F4BB2E"
       d="M174.5 65v12h-6v2.78c0 1.78-1.44 3.22-3.22 3.22h-5.56c-1.78 0-3.22-1.44-3.22-3.22V77h-6V65h24zm-52 78c-5.52 0-10 4.48-10 10 0-5.52-4.48-10-10-10h-90V53h-10v110h90c6.3 3.15 13.15 4.72 20 4.72s13.7-1.57 20-4.72v-.38l90 .38V53h-10v90h-90z"
       class="color1"
       style="fill: rgb(244, 187, 46);"
       id="path5702" />
    <path
       fill="#F4BB2E"
       d="M174.5 33l-6 32h-12l-6-32a8.448 8.448 0 006 2.48c2.17 0 4.34-.82 6-2.48a8.448 8.448 0 006 2.48c2.17 0 4.34-.82 6-2.48zm-12-30c-16.57 0-30 13.43-30 30 0 3.5.6 6.87 1.7 10a30.154 30.154 0 0016.3 17.5V65h6l-6-32a8.448 8.448 0 006 2.48c2.17 0 4.34-.82 6-2.48a8.448 8.448 0 006 2.48c2.17 0 4.34-.82 6-2.48l-6 32h6v-4.5A30.154 30.154 0 00190.8 43c1.1-3.13 1.7-6.5 1.7-10 0-16.57-13.43-30-30-30zm-130 70v40h60V73h-60z"
       class="color1"
       opacity=".4"
       style="fill: rgb(244, 187, 46);"
       id="path5704" />
    <path
       fill="#F4BB2E"
       d="M112.5 153V52.33c0-5.37 3.96-9.33 8.85-9.33h12.85a30.154 30.154 0 0016.3 17.5V77h6v2.78c0 1.78 1.44 3.22 3.22 3.22h5.56c1.78 0 3.22-1.44 3.22-3.22V77h6V60.5A30.154 30.154 0 00190.8 43h21.7v100h-90c-5.52 0-10 4.48-10 10zm-8.85-110H12.5v100h90c5.52 0 10 4.48 10 10V52.33c0-5.37-3.96-9.33-8.85-9.33zM32.5 113V73h60v40h-60z"
       class="color1"
       opacity=".25"
       style="fill: rgb(244, 187, 46);"
       id="path5706" />
    <path
       fill="#000"
       d="M130 113a2.5 2.5 0 012.5-2.5h60a2.5 2.5 0 010 5h-60a2.5 2.5 0 01-2.5-2.5zm2.5-17.5h60a2.5 2.5 0 000-5h-60a2.5 2.5 0 000 5zM30 113V73a2.5 2.5 0 012.5-2.5h60A2.5 2.5 0 0195 73v40a2.5 2.5 0 01-2.5 2.5h-60A2.5 2.5 0 0130 113zm5-2.5h55v-35H35v35zM225 53v110c0 .67-.26 1.3-.74 1.77-.47.47-1.13.71-1.77.73l-88.67-.37c-.06.04-.13.08-.2.11a47.452 47.452 0 01-21.12 4.98c-7.1 0-14.2-1.63-20.58-4.72H2.5A2.5 2.5 0 010 163V53a2.5 2.5 0 012.5-2.5H10V43a2.5 2.5 0 012.5-2.5h91.15c3.62 0 6.79 1.68 8.85 4.35 2.06-2.67 5.23-4.35 8.85-4.35h9.52c-.58-2.45-.88-4.96-.88-7.5 0-17.92 14.58-32.5 32.5-32.5s32.5 14.58 32.5 32.5c0 2.54-.3 5.05-.88 7.5h18.38a2.5 2.5 0 012.5 2.5v7.5h7.5c1.39 0 2.51 1.12 2.51 2.5zm-90-20c0 3.14.52 6.23 1.56 9.17 2.53 7.15 7.98 13 14.94 16.04.91.4 1.5 1.3 1.5 2.29v2h.49l-5.44-29.04c-.2-1.08.32-2.16 1.29-2.67.97-.51 2.16-.33 2.93.44a5.937 5.937 0 004.23 1.75c1.6 0 3.1-.62 4.23-1.75.94-.94 2.6-.94 3.54 0a5.937 5.937 0 004.23 1.75c1.6 0 3.1-.62 4.23-1.75.77-.78 1.96-.95 2.93-.44.97.51 1.49 1.59 1.29 2.67l-5.44 29.04h.49v-2c0-.99.59-1.89 1.5-2.29a27.684 27.684 0 0014.95-16.04c1.03-2.94 1.56-6.02 1.56-9.16 0-15.16-12.34-27.5-27.5-27.5S135 17.84 135 33zm24 44v2.78c0 .4.32.72.72.72h5.56c.4 0 .72-.32.72-.72V77a2.5 2.5 0 012.5-2.5h3.5v-7h-19v7h3.5A2.5 2.5 0 01159 77zm-.42-14.5h7.85l4.65-24.82c-.83.2-1.7.3-2.58.3-2.17 0-4.23-.62-6-1.78a10.88 10.88 0 01-6 1.78c-.88 0-1.74-.1-2.58-.3l4.66 24.82zM115 52.33v90.68a12.46 12.46 0 017.5-2.51H210v-95h-17.49c-3.01 7.18-8.54 13.11-15.51 16.59V77a2.5 2.5 0 01-2.5 2.5H171v.28c0 3.15-2.57 5.72-5.72 5.72h-5.56c-3.15 0-5.72-2.57-5.72-5.72v-.28h-3.5A2.5 2.5 0 01148 77V62.09c-6.97-3.48-12.5-9.41-15.51-16.59h-11.14c-3.62 0-6.35 2.94-6.35 6.83zM15 140.5h87.5c2.82 0 5.41.95 7.5 2.52V52.33c0-3.89-2.73-6.83-6.35-6.83H15v95zm205-85h-5V153a2.5 2.5 0 01-2.5 2.5h-90a2.5 2.5 0 010-5H210v-5h-87.5c-4.14 0-7.5 3.36-7.5 7.5a2.5 2.5 0 01-5 0c0-4.14-3.36-7.5-7.5-7.5H15v5h87.5a2.5 2.5 0 010 5h-90A2.5 2.5 0 0110 153V55.5H5v105h87.5c.39 0 .77.09 1.12.26a42.373 42.373 0 0018.88 4.46c6.17 0 12.34-1.38 17.92-3.99a2.482 2.482 0 012.07-1.11h.01l87.49.37V55.5h.01z"
       class="color2"
       id="path5708" />
  </g>
</svg>
